# xmcd
#
# Track frame offsets:
#	150
#	19716
#	42741
#	62510
#	83646
#	104219
#	129794
#	149053
#	183930
#	221121
#	254711
#	272310
#	307202
#	342767
#
# Disc length: 4716 seconds
#
# Revision: 22
# Processed by: cddbd v1.5.2PL0 Copyright (c) Steve Scherf et al.
# Submitted via: audiograbber 1.83.01
#
DISCID=d7126a0e
DTITLE=Ken Follett - Eisfieber
DYEAR=2010
DGENRE=Hörbuch
TTITLE0=4 - 01 Eisfieber
TTITLE1=4 - 02 Eisfieber
TTITLE2=4 - 03 Eisfieber
TTITLE3=4 - 04 Eisfieber
TTITLE4=4 - 05 Eisfieber
TTITLE5=4 - 06 Eisfieber
TTITLE6=4 - 07 Eisfieber
TTITLE7=4 - 08 Eisfieber
TTITLE8=4 - 09 Eisfieber
TTITLE9=4 - 10 Eisfieber
TTITLE10=4 - 11 Eisfieber
TTITLE11=4 - 12 Eisfieber
TTITLE12=4 - 13 Eisfieber
TTITLE13=4 - 14 Eisfieber
EXTD=
EXTT0=
EXTT1=
EXTT2=
EXTT3=
EXTT4=
EXTT5=
EXTT6=
EXTT7=
EXTT8=
EXTT9=
EXTT10=
EXTT11=
EXTT12=
EXTT13=
PLAYORDER=
